<svg xmlns="http://www.w3.org/2000/svg" width="1000" height="560" viewBox="0 0 1000 560">
<defs>
  <linearGradient id="g" x1="0" x2="1"><stop offset="0" stop-color="#7c3aed"/><stop offset=".5" stop-color="#06b6d4"/><stop offset="1" stop-color="#22c55e"/></linearGradient>
  <filter id="glow"><feGaussianBlur stdDeviation="5" result="b"/><feMerge><feMergeNode in="b"/><feMergeNode in="SourceGraphic"/></feMerge></filter>
</defs>
<rect width="1000" height="560" rx="28" fill="#080b14"/>
<text x="55" y="62" fill="#fff" font-family="Inter,Arial" font-size="28" font-weight="700">WEEKLY ENGINEERING SKILL MATRIX</text>
<text x="55" y="90" fill="#94a3b8" font-family="Inter,Arial" font-size="15">Live snapshot • update the values weekly</text>
<text x="55" y="140" fill="#e2e8f0" font-family="Inter,Arial" font-size="17" font-weight="600">C++</text><text x="885" y="140" fill="#fff" font-family="Inter,Arial" font-size="17" font-weight="700" text-anchor="end">7.5/10</text><rect x="55" y="154" width="830" height="12" rx="6" fill="#182033"/><rect x="55" y="154" width="0" height="12" rx="6" fill="url(#g)" filter="url(#glow)"><animate attributeName="width" from="0" to="510" dur="1.4s" begin="0s" fill="freeze"/></rect><text x="55" y="202" fill="#e2e8f0" font-family="Inter,Arial" font-size="17" font-weight="600">DSA</text><text x="885" y="202" fill="#fff" font-family="Inter,Arial" font-size="17" font-weight="700" text-anchor="end">6/10</text><rect x="55" y="216" width="830" height="12" rx="6" fill="#182033"/><rect x="55" y="216" width="0" height="12" rx="6" fill="url(#g)" filter="url(#glow)"><animate attributeName="width" from="0" to="408" dur="1.4s" begin="0.12s" fill="freeze"/></rect><text x="55" y="264" fill="#e2e8f0" font-family="Inter,Arial" font-size="17" font-weight="600">Problem Solving</text><text x="885" y="264" fill="#fff" font-family="Inter,Arial" font-size="17" font-weight="700" text-anchor="end">6.8/10</text><rect x="55" y="278" width="830" height="12" rx="6" fill="#182033"/><rect x="55" y="278" width="0" height="12" rx="6" fill="url(#g)" filter="url(#glow)"><animate attributeName="width" from="0" to="462.4" dur="1.4s" begin="0.24s" fill="freeze"/></rect><text x="55" y="326" fill="#e2e8f0" font-family="Inter,Arial" font-size="17" font-weight="600">OOP</text><text x="885" y="326" fill="#fff" font-family="Inter,Arial" font-size="17" font-weight="700" text-anchor="end">4/10</text><rect x="55" y="340" width="830" height="12" rx="6" fill="#182033"/><rect x="55" y="340" width="0" height="12" rx="6" fill="url(#g)" filter="url(#glow)"><animate attributeName="width" from="0" to="272" dur="1.4s" begin="0.36s" fill="freeze"/></rect><text x="55" y="388" fill="#e2e8f0" font-family="Inter,Arial" font-size="17" font-weight="600">CS Fundamentals</text><text x="885" y="388" fill="#fff" font-family="Inter,Arial" font-size="17" font-weight="700" text-anchor="end">3.5/10</text><rect x="55" y="402" width="830" height="12" rx="6" fill="#182033"/><rect x="55" y="402" width="0" height="12" rx="6" fill="url(#g)" filter="url(#glow)"><animate attributeName="width" from="0" to="237.99999999999997" dur="1.4s" begin="0.48s" fill="freeze"/></rect><text x="55" y="450" fill="#e2e8f0" font-family="Inter,Arial" font-size="17" font-weight="600">DBMS / SQL</text><text x="885" y="450" fill="#fff" font-family="Inter,Arial" font-size="17" font-weight="700" text-anchor="end">4.5/10</text><rect x="55" y="464" width="830" height="12" rx="6" fill="#182033"/><rect x="55" y="464" width="0" height="12" rx="6" fill="url(#g)" filter="url(#glow)"><animate attributeName="width" from="0" to="306" dur="1.4s" begin="0.6s" fill="freeze"/></rect>
<circle cx="55" cy="530" r="5" fill="#06b6d4"><animate attributeName="r" values="4;8;4" dur="1.5s" repeatCount="indefinite"/></circle>
<text x="72" y="536" fill="#94a3b8" font-family="Inter,Arial" font-size="14">Next update: weekly progress review</text>
</svg>